<?xml version="1.0" encoding="utf-8"?>
<!-- Generator: Adobe Illustrator 19.2.0, SVG Export Plug-In . SVG Version: 6.00 Build 0)  -->
<svg version="1.1" id="Layer_1" xmlns="http://www.w3.org/2000/svg" xmlns:xlink="http://www.w3.org/1999/xlink" x="0px" y="0px"
	 viewBox="0 0 300 69.3" style="enable-background:new 0 0 300 69.3;" xml:space="preserve">
<style type="text/css">
	.st0{fill:#FFFFFF;}
</style>
<title>innova-logo</title>
<ellipse transform="matrix(0.8873 -0.4613 0.4613 0.8873 -13.17 30.5453)" class="st0" cx="55.9" cy="42.2" rx="2.5" ry="2.5"/>
<path class="st0" d="M58.5,49.7c1.1-0.5,1.5-1.8,0.9-2.9c-0.5-1.1-1.8-1.5-2.9-0.9c-1.1,0.5-1.5,1.8-0.9,2.9l0,0
	C56.2,49.9,57.5,50.3,58.5,49.7L58.5,49.7z"/>
<ellipse transform="matrix(0.8866 -0.4625 0.4625 0.8866 -17.8705 32.9133)" class="st0" cx="58.2" cy="52.9" rx="1.7" ry="1.7"/>
<ellipse transform="matrix(0.8868 -0.4621 0.4621 0.8868 -19.8525 33.1298)" class="st0" cx="57.7" cy="57.1" rx="1.4" ry="1.4"/>
<path class="st0" d="M58.4,32.3c-1-0.9-2.6-0.9-3.6,0.2c-0.9,1-0.9,2.6,0.2,3.6c1,0.9,2.6,0.9,3.5-0.2
	C59.5,34.9,59.5,33.3,58.4,32.3z"/>
<path class="st0" d="M61.7,37.3c-0.9-0.8-2.2-0.8-3,0.1s-0.8,2.2,0.1,3c0.9,0.8,2.2,0.8,3-0.1l0,0C62.6,39.4,62.5,38.1,61.7,37.3z"
	/>
<ellipse transform="matrix(0.6753 -0.7375 0.7375 0.6753 -11.7709 60.1919)" class="st0" cx="62.5" cy="43.5" rx="1.7" ry="1.7"/>
<ellipse transform="matrix(0.6757 -0.7372 0.7372 0.6757 -14.4486 62.2097)" class="st0" cx="63.5" cy="47.5" rx="1.4" ry="1.4"/>
<path class="st0" d="M52.5,25.4c-0.5,1.3,0.1,2.8,1.4,3.3c1.3,0.5,2.8-0.1,3.3-1.4s-0.1-2.7-1.4-3.3C54.5,23.5,53,24.1,52.5,25.4
	L52.5,25.4z"/>
<ellipse transform="matrix(0.3832 -0.9237 0.9237 0.3832 9.5228 73.4131)" class="st0" cx="59.7" cy="29.6" rx="2.1" ry="2.1"/>
<ellipse transform="matrix(0.3828 -0.9238 0.9238 0.3828 8.5689 78.9361)" class="st0" cx="63.4" cy="33.1" rx="1.7" ry="1.7"/>
<path class="st0" d="M66.2,35.3c-0.7-0.3-1.5,0-1.8,0.7s0,1.5,0.7,1.8s1.5,0,1.8-0.7l0,0C67.2,36.4,66.9,35.6,66.2,35.3L66.2,35.3z"
	/>
<path class="st0" d="M47.8,19.5c-0.1,1.4,1,2.6,2.4,2.6c1.4,0.1,2.6-1,2.6-2.4c0.1-1.4-1-2.6-2.4-2.6C49,17.1,47.8,18.1,47.8,19.5z"
	/>
<path class="st0" d="M58.1,21.1c0.1-1.2-0.9-2.2-2.1-2.2c-1.2-0.1-2.2,0.9-2.2,2.1c-0.1,1.2,0.9,2.2,2,2.2
	C57.1,23.2,58.1,22.3,58.1,21.1L58.1,21.1z"/>
<path class="st0" d="M59,22.9c0,0.9,0.7,1.7,1.6,1.8c0.9,0,1.7-0.7,1.8-1.6c0-0.9-0.7-1.7-1.6-1.8C59.8,21.2,59,22,59,22.9L59,22.9z
	"/>
<ellipse transform="matrix(4.379557e-02 -0.999 0.999 4.379557e-02 35.7113 88.398)" class="st0" cx="64" cy="25.5" rx="1.4" ry="1.4"/>
<path class="st0" d="M41.4,15.6c0.4,1.3,1.8,2.1,3.2,1.6c1.3-0.4,2.1-1.8,1.6-3.2c-0.4-1.3-1.8-2.1-3.2-1.6
	C41.7,12.9,40.9,14.3,41.4,15.6L41.4,15.6z"/>
<path class="st0" d="M47.5,14.8c0.4,1.1,1.6,1.8,2.7,1.4c1.1-0.4,1.8-1.6,1.4-2.7c-0.4-1.1-1.6-1.8-2.7-1.4l0,0
	C47.8,12.5,47.2,13.7,47.5,14.8z"/>
<path class="st0" d="M55.2,16.1c0.9-0.3,1.4-1.2,1.1-2.1c-0.3-0.9-1.2-1.4-2.1-1.1s-1.4,1.2-1.1,2.1l0,0
	C53.3,15.9,54.3,16.4,55.2,16.1L55.2,16.1z"/>
<ellipse transform="matrix(0.9537 -0.3007 0.3007 0.9537 -2.0077 18.3773)" class="st0" cx="58.7" cy="15.7" rx="1.4" ry="1.4"/>
<ellipse transform="matrix(0.7915 -0.6112 0.6112 0.7915 0.164 24.2838)" class="st0" cx="35.7" cy="11.9" rx="2.5" ry="2.5"/>
<path class="st0" d="M39.9,8.3c-0.9,0.7-1.1,2.1-0.4,3c0.7,0.9,2.1,1.1,3,0.4c0.9-0.7,1.1-2.1,0.4-3l0,0C42.2,7.8,40.9,7.6,39.9,8.3
	z"/>
<ellipse transform="matrix(0.7932 -0.6089 0.6089 0.7932 4.3314 29.8252)" class="st0" cx="46.1" cy="8.5" rx="1.7" ry="1.7"/>
<ellipse transform="matrix(0.7915 -0.6112 0.6112 0.7915 5.8028 32.0709)" class="st0" cx="49.9" cy="7.5" rx="1.4" ry="1.4"/>
<path class="st0" d="M29.3,11.1c-1.2-0.7-2.7-0.4-3.5,0.8c-0.7,1.2-0.4,2.7,0.8,3.5c1.2,0.7,2.7,0.4,3.5-0.8l0,0
	C30.8,13.4,30.5,11.8,29.3,11.1z"/>
<path class="st0" d="M30.8,10.7c1,0.6,2.3,0.3,3-0.7c0.6-1,0.3-2.3-0.7-3s-2.3-0.3-3,0.7l0,0C29.5,8.8,29.8,10.1,30.8,10.7z"/>
<ellipse transform="matrix(0.5373 -0.8434 0.8434 0.5373 11.6747 33.1535)" class="st0" cx="36.1" cy="5.9" rx="1.7" ry="1.7"/>
<path class="st0" d="M39.2,5.3c0.6,0.4,1.5,0.2,1.9-0.4c0.4-0.6,0.2-1.5-0.4-1.9c-0.6-0.4-1.5-0.2-1.9,0.4l0,0
	C38.4,4.1,38.5,4.9,39.2,5.3z"/>
<path class="st0" d="M18.1,15.9c-0.3,1.4,0.6,2.7,1.9,3c1.4,0.3,2.7-0.6,3-1.9c0.3-1.4-0.5-2.7-1.9-3C19.7,13.7,18.4,14.6,18.1,15.9
	L18.1,15.9z"/>
<path class="st0" d="M22.4,13.2c1.2,0.3,2.3-0.5,2.6-1.6c0.3-1.2-0.5-2.3-1.6-2.6c-1.2-0.3-2.3,0.5-2.6,1.6
	C20.5,11.8,21.3,12.9,22.4,13.2z"/>
<path class="st0" d="M25.3,8.5c0.9,0.2,1.8-0.4,2-1.3c0.2-0.9-0.4-1.8-1.3-2s-1.8,0.4-2,1.3S24.4,8.3,25.3,8.5L25.3,8.5z"/>
<path class="st0" d="M28.4,5.3c0.7,0.2,1.5-0.3,1.6-1c0.2-0.7-0.3-1.5-1-1.6c-0.7-0.2-1.5,0.3-1.6,1l0,0C27.2,4.4,27.7,5.1,28.4,5.3
	z"/>
<path class="st0" d="M15.1,24.6c1.4-0.2,2.3-1.4,2.2-2.8c-0.2-1.4-1.4-2.3-2.8-2.2c-1.4,0.2-2.3,1.4-2.2,2.8
	C12.4,23.8,13.7,24.7,15.1,24.6L15.1,24.6z"/>
<path class="st0" d="M15.4,18.4c1.2-0.1,2-1.2,1.9-2.4s-1.2-2-2.4-1.9s-2,1.2-1.9,2.4l0,0C13.1,17.7,14.2,18.5,15.4,18.4z"/>
<path class="st0" d="M16.4,12.9c0.9-0.1,1.6-1,1.5-1.9s-1-1.6-1.9-1.5s-1.6,1-1.5,1.9C14.6,12.4,15.5,13.1,16.4,12.9L16.4,12.9z"/>
<ellipse transform="matrix(0.9914 -0.1305 0.1305 0.9914 -0.8267 2.4264)" class="st0" cx="18.1" cy="7.5" rx="1.4" ry="1.4"/>
<path class="st0" d="M12.3,31.6c1.2-0.6,1.7-2.2,1.1-3.4c-0.6-1.2-2.2-1.7-3.4-1.1s-1.7,2.2-1,3.4C9.6,31.7,11.1,32.2,12.3,31.6
	L12.3,31.6z"/>
<path class="st0" d="M8.5,21.8c-1.1,0.5-1.5,1.8-0.9,2.9c0.5,1.1,1.8,1.5,2.9,0.9c1-0.5,1.5-1.8,0.9-2.9
	C10.9,21.7,9.6,21.3,8.5,21.8L8.5,21.8z"/>
<ellipse transform="matrix(0.8868 -0.4622 0.4622 0.8868 -7.6377 6.2412)" class="st0" cx="8.9" cy="18.7" rx="1.7" ry="1.7"/>
<ellipse transform="matrix(0.8873 -0.4613 0.4613 0.8873 -5.6333 5.9795)" class="st0" cx="9.4" cy="14.5" rx="1.4" ry="1.4"/>
<path class="st0" d="M8.6,39.2c1,0.9,2.6,0.9,3.6-0.2c0.9-1,0.9-2.6-0.2-3.6c-1-0.9-2.6-0.9-3.5,0.2C7.5,36.7,7.6,38.3,8.6,39.2
	L8.6,39.2z"/>
<path class="st0" d="M5.4,34.2c0.9,0.8,2.2,0.8,3-0.1s0.8-2.2-0.1-3s-2.2-0.8-3,0.1l0,0C4.5,32.1,4.5,33.4,5.4,34.2z"/>
<path class="st0" d="M3.3,26.9c-0.6,0.7-0.6,1.8,0.1,2.4s1.8,0.6,2.4-0.1s0.6-1.8-0.1-2.4l0,0C5,26.2,3.9,26.3,3.3,26.9z"/>
<ellipse transform="matrix(0.6755 -0.7374 0.7374 0.6755 -16.5349 10.4312)" class="st0" cx="3.6" cy="24" rx="1.4" ry="1.4"/>
<path class="st0" d="M14.6,46.2c0.5-1.3-0.1-2.8-1.4-3.3s-2.8,0.1-3.3,1.4s0.1,2.7,1.4,3.3C12.6,48.1,14.1,47.4,14.6,46.2z"/>
<path class="st0" d="M6.6,44c1.1,0.5,2.4-0.1,2.8-1.2c0.5-1.1-0.1-2.4-1.2-2.8c-1.1-0.5-2.3,0.1-2.8,1.2C5,42.2,5.5,43.5,6.6,44z"/>
<path class="st0" d="M4.3,36.9c-0.9-0.4-1.9,0.1-2.2,0.9C1.7,38.7,2.2,39.7,3,40c0.9,0.4,1.9-0.1,2.2-0.9
	C5.6,38.3,5.2,37.3,4.3,36.9L4.3,36.9z"/>
<path class="st0" d="M2.6,35.5c0.3-0.7,0-1.5-0.7-1.8s-1.5,0-1.8,0.7s0,1.5,0.7,1.8S2.3,36.2,2.6,35.5L2.6,35.5z"/>
<path class="st0" d="M19.3,52c0.1-1.4-1-2.6-2.4-2.6c-1.4-0.1-2.6,1-2.6,2.4c-0.1,1.4,1,2.6,2.4,2.6C18.1,54.5,19.2,53.4,19.3,52z"
	/>
<path class="st0" d="M11,52.7c1.2,0.1,2.2-0.9,2.2-2.1c0.1-1.2-0.9-2.2-2.1-2.2c-1.1-0.1-2.1,0.9-2.2,2C8.9,51.6,9.8,52.6,11,52.7z"
	/>
<path class="st0" d="M8.1,48.6c0-0.9-0.7-1.7-1.6-1.8c-0.9,0-1.7,0.7-1.8,1.6c0,0.9,0.7,1.7,1.6,1.8C7.2,50.3,8,49.6,8.1,48.6
	L8.1,48.6z"/>
<path class="st0" d="M3.1,44.7c-0.7,0-1.4,0.5-1.4,1.3c0,0.7,0.5,1.4,1.3,1.4c0.7,0,1.4-0.5,1.4-1.3l0,0C4.4,45.3,3.8,44.7,3.1,44.7
	z"/>
<path class="st0" d="M25.7,55.9c-0.4-1.3-1.8-2.1-3.2-1.6c-1.3,0.4-2.1,1.8-1.6,3.2c0.4,1.3,1.8,2.1,3.2,1.6
	C25.4,58.6,26.1,57.2,25.7,55.9L25.7,55.9z"/>
<path class="st0" d="M19.5,56.7c-0.4-1.1-1.6-1.8-2.7-1.4S15,56.9,15.4,58c0.4,1.1,1.6,1.8,2.7,1.4C19.3,59,19.9,57.8,19.5,56.7
	L19.5,56.7z"/>
<path class="st0" d="M11.9,55.4c-0.9,0.3-1.4,1.2-1.1,2.1c0.3,0.9,1.2,1.4,2.1,1.1c0.9-0.3,1.4-1.2,1.1-2.1l0,0
	C13.7,55.6,12.8,55.1,11.9,55.4z"/>
<path class="st0" d="M8,54.6c-0.7,0.2-1.1,1-0.9,1.7s1,1.1,1.7,0.9s1.1-1,0.9-1.7l0,0C9.4,54.7,8.7,54.3,8,54.6z"/>
<path class="st0" d="M32.6,60.9c1.1-0.9,1.3-2.4,0.4-3.5c-0.9-1.1-2.4-1.3-3.5-0.4c-1.1,0.8-1.3,2.4-0.5,3.5
	C29.9,61.5,31.5,61.8,32.6,60.9L32.6,60.9z"/>
<path class="st0" d="M27.1,63.2c0.9-0.7,1.1-2.1,0.4-3s-2.1-1.1-3-0.4s-1.1,2.1-0.4,3l0,0C24.9,63.8,26.2,63.9,27.1,63.2z"/>
<path class="st0" d="M19.9,61.6c-0.7,0.6-0.9,1.7-0.3,2.4c0.6,0.7,1.7,0.9,2.4,0.3c0.7-0.6,0.9-1.6,0.3-2.4
	C21.7,61.2,20.7,61.1,19.9,61.6L19.9,61.6z"/>
<path class="st0" d="M15.9,62.2c-0.6,0.5-0.7,1.3-0.3,1.9c0.5,0.6,1.3,0.7,1.9,0.3c0.6-0.5,0.7-1.3,0.3-1.9l0,0
	C17.4,61.8,16.5,61.7,15.9,62.2z"/>
<path class="st0" d="M40.5,56.2c-1.2-0.7-2.7-0.4-3.5,0.8c-0.7,1.2-0.4,2.7,0.8,3.5c1.2,0.7,2.7,0.4,3.5-0.8
	C42,58.5,41.7,57,40.5,56.2z"/>
<path class="st0" d="M36.3,60.8c-1-0.6-2.3-0.3-3,0.7s-0.3,2.3,0.7,3c1,0.6,2.3,0.3,3-0.7l0,0C37.6,62.7,37.3,61.4,36.3,60.8z"/>
<path class="st0" d="M31.9,64.2c-0.8-0.5-1.9-0.3-2.4,0.5s-0.3,1.9,0.5,2.4s1.9,0.3,2.4-0.5l0,0C33,65.8,32.7,64.7,31.9,64.2z"/>
<path class="st0" d="M27.9,66.2c-0.6-0.4-1.5-0.2-1.9,0.4s-0.2,1.5,0.4,1.9s1.5,0.2,1.9-0.4l0,0C28.7,67.4,28.5,66.6,27.9,66.2z"/>
<path class="st0" d="M49,55.6c0.3-1.4-0.6-2.7-1.9-3c-1.4-0.3-2.7,0.6-3,1.9c-0.3,1.4,0.5,2.7,1.9,3C47.3,57.8,48.7,57,49,55.6
	L49,55.6z"/>
<path class="st0" d="M44.7,58.3c-1.2-0.3-2.3,0.5-2.6,1.6c-0.3,1.2,0.5,2.3,1.6,2.6c1.2,0.3,2.3-0.5,2.6-1.6l0,0
	C46.5,59.7,45.8,58.6,44.7,58.3z"/>
<path class="st0" d="M41.8,63.1c-0.9-0.2-1.8,0.4-2,1.3s0.4,1.8,1.3,2c0.9,0.2,1.8-0.4,2-1.3S42.7,63.3,41.8,63.1L41.8,63.1z"/>
<path class="st0" d="M38.6,66.3c-0.7-0.2-1.5,0.3-1.6,1s0.3,1.5,1,1.6c0.7,0.2,1.5-0.3,1.6-1l0,0C39.8,67.2,39.4,66.4,38.6,66.3z"/>
<path class="st0" d="M52,47c-1.4,0.2-2.3,1.4-2.2,2.8c0.2,1.4,1.4,2.3,2.8,2.2c1.4-0.2,2.3-1.4,2.2-2.8C54.7,47.8,53.4,46.8,52,47
	L52,47z"/>
<path class="st0" d="M51.7,53.2c-1.2,0.1-2,1.2-1.9,2.4c0.1,1.2,1.2,2,2.4,1.9s2-1.2,1.9-2.4l0,0C54,53.9,52.9,53,51.7,53.2z"/>
<path class="st0" d="M50.6,58.6c-0.9,0.1-1.6,1-1.5,1.9s1,1.6,1.9,1.5s1.6-1,1.5-1.9C52.4,59.1,51.5,58.5,50.6,58.6L50.6,58.6z"/>
<path class="st0" d="M48.8,62.7c-0.7,0.1-1.3,0.8-1.2,1.5s0.8,1.3,1.5,1.2c0.7-0.1,1.3-0.8,1.2-1.5l0,0
	C50.2,63.1,49.5,62.6,48.8,62.7z"/>
<path class="st0" d="M87.9,37.6c6.6,0,8.8,3.9,8.8,8.1c0,6.1-4,8.5-9.7,8.5h-7.5V63h-1.3V37.6H87.9L87.9,37.6z M86.9,53.1
	c5,0,8.4-2.1,8.4-7.3c0-3.6-1.9-6.9-7.5-6.9h-8.3v14.2L86.9,53.1L86.9,53.1z"/>
<path class="st0" d="M117.2,43.6V63H116v-2.3c-2.2,1.7-4.9,2.5-7.7,2.5c-5.5,0.1-10.1-4.2-10.2-9.7s4.2-10.1,9.7-10.2
	c0.2,0,0.3,0,0.5,0c2.8,0,5.5,0.9,7.7,2.6v-2.2h1.2V43.6z M116,47.3c-2.1-1.9-4.8-2.9-7.5-2.8c-4.8-0.2-8.8,3.6-9,8.4s3.6,8.8,8.4,9
	c0.2,0,0.4,0,0.6,0c3.2,0,5.8-1,7.6-2.7L116,47.3L116,47.3z"/>
<path class="st0" d="M122.8,48.3c1.1-3,3.4-5,6.6-5c1.2,0,2.3,0.3,3.3,0.8l-0.3,1.3c-1-0.5-2-0.7-3.1-0.7c-3.9,0-6.5,3.6-6.5,8.2
	v10.2h-1.3V43.6h1.3V48.3L122.8,48.3z"/>
<path class="st0" d="M139.4,44.8v12c0,3.7,1.8,5.1,4.3,5.1c1.1,0,2.2-0.1,3.2-0.4v1.2c-1.1,0.3-2.3,0.4-3.5,0.4
	c-3,0-5.4-1.9-5.4-5.6V44.8h-3.6v-1.2h3.6v-7.7h1.3v7.7h7.6v1.2H139.4z"/>
<path class="st0" d="M166.6,51.8V63h-1.3V51.8c0-4.8-3.1-7.3-7.2-7.3c-2.7-0.1-5.4,0.9-7.5,2.7V63h-1.3V43.6h1.3v2.3
	c1.8-1.7,4.5-2.7,7.6-2.7C163,43.3,166.6,46.2,166.6,51.8z"/>
<path class="st0" d="M188.9,53.8H171c0.2,4.6,4,8.2,8.6,8.1c2.9,0,5.7-1.1,7.5-3.3l1,0.8c-1.8,2.3-4.9,3.7-8.5,3.7
	c-5.8,0-9.9-4.5-9.9-9.9s4-10,9.9-10s9.3,4.2,9.3,10.1L188.9,53.8L188.9,53.8z M171,52.6h16.6c-0.3-4.8-3.2-8.1-8.1-8.1
	C175,44.4,171.2,48,171,52.6L171,52.6z"/>
<path class="st0" d="M193.8,48.3c1.1-3,3.4-5,6.6-5c1.2,0,2.3,0.3,3.3,0.8l-0.3,1.3c-1-0.5-2-0.7-3.1-0.7c-3.9,0-6.5,3.6-6.5,8.2
	v10.2h-1.3V43.6h1.3V48.3L193.8,48.3z"/>
<path class="st0" d="M205.3,60.3c2.4,1,4.9,1.6,7.5,1.6c4.7,0,6.4-2.1,6.4-4.3c0-2.4-2.8-3.4-6.7-4.2c-4.3-0.9-7.4-2.1-7.4-5.2
	c0-3,3.1-5.1,7.1-5.1c2.4,0,4.9,0.5,7.1,1.5l-0.4,1.1c-2.1-0.9-4.4-1.4-6.7-1.3c-3.3,0-5.8,1.6-5.8,3.9s2.4,3.1,6.4,3.9
	c4.5,0.9,7.6,2.1,7.6,5.4c0,2.8-2.1,5.5-7.7,5.5c-2.8-0.1-5.5-0.7-8-1.8L205.3,60.3z"/>
<path class="st0" d="M241.2,51.8V63h-1.3V51.8c0-4.8-3.2-7.3-7.2-7.3c-2.7-0.1-5.4,0.9-7.5,2.7V63h-1.3V35.9h1.3V46
	c1.8-1.7,4.5-2.7,7.6-2.7C237.6,43.3,241.2,46.2,241.2,51.8z"/>
<path class="st0" d="M247.3,38.5c0,0.6-0.4,1.1-1,1.1s-1.1-0.4-1.1-1s0.4-1.1,1-1.1l0,0C246.8,37.4,247.3,37.8,247.3,38.5
	C247.3,38.4,247.3,38.4,247.3,38.5z M245.6,43.6h1.3V63h-1.3V43.6z"/>
<path class="st0" d="M270.8,53.2c0,5.5-4.5,10-10,10h-0.1c-2.8,0.1-5.4-0.8-7.6-2.4v8.6h-1.3V43.6h1.3v2.2c2.2-1.7,4.9-2.7,7.6-2.6
	C266.2,43.2,270.7,47.6,270.8,53.2L270.8,53.2z M269.5,53.2c0-4.9-4-8.8-8.9-8.7h-0.1c-2.8-0.1-5.5,0.9-7.5,2.8v11.9
	c1.7,1.7,4.4,2.7,7.5,2.7C265.4,62,269.4,58.1,269.5,53.2C269.5,53.3,269.5,53.2,269.5,53.2z"/>
<path class="st0" d="M273.6,60.3c2.4,1,4.9,1.6,7.5,1.6c4.7,0,6.4-2.1,6.4-4.3c0-2.4-2.8-3.4-6.7-4.2c-4.3-0.9-7.4-2.1-7.4-5.2
	c0-3,3.1-5.1,7.1-5.1c2.4,0,4.9,0.5,7.1,1.5l-0.4,1.1c-2.1-0.9-4.4-1.4-6.7-1.3c-3.3,0-5.8,1.6-5.8,3.9s2.4,3.1,6.4,3.9
	c4.5,0.9,7.6,2.1,7.6,5.4c0,2.8-2.1,5.5-7.7,5.5c-2.8-0.1-5.5-0.7-8-1.8L273.6,60.3z"/>
<path class="st0" d="M83.4,33.4h-5.2V8h5.2V33.4L83.4,33.4z"/>
<path class="st0" d="M106.9,22.5v10.9h-5V22.5c0-3-1.5-4.5-4.3-4.5c-1.6,0-3.1,0.5-4.3,1.6v13.9h-5V13.9h5v1.2
	c1.5-1.1,3.4-1.6,5.2-1.6C104.3,13.5,106.9,16.2,106.9,22.5z"/>
<path class="st0" d="M129.8,22.5v10.9h-5V22.5c0-3-1.5-4.5-4.3-4.5c-1.6,0-3.1,0.5-4.3,1.5v13.9h-5V13.9h5v1.2
	c1.5-1.1,3.4-1.6,5.2-1.6C127.2,13.5,129.8,16.2,129.8,22.5z"/>
<path class="st0" d="M154.6,23.6c0,5.6-4.8,10.1-10.7,10.1s-10.7-4.5-10.7-10.1s4.8-10.1,10.7-10.1C149.7,13.5,154.6,18,154.6,23.6z
	 M149.6,23.6c0.1-3.2-2.4-5.8-5.6-5.9s-5.8,2.4-5.9,5.6s2.4,5.8,5.6,5.9c0.1,0,0.1,0,0.2,0C147,29.3,149.6,26.8,149.6,23.6z"/>
<path class="st0" d="M176.5,13.9l-9.4,19.6h-2.4l-9.4-19.6h5.3L166,25l5.3-11.1H176.5L176.5,13.9z"/>
<path class="st0" d="M197.9,13.9v19.6h-5v-1.4c-1.7,1.1-3.7,1.7-5.7,1.7c-6.1,0-9.7-4.9-9.7-10.1s3.6-10.1,9.7-10.1
	c2,0,4,0.6,5.7,1.6V14L197.9,13.9L197.9,13.9z M192.9,19.7c-1.4-1.1-3.1-1.7-4.8-1.7c-3.1-0.1-5.7,2.3-5.8,5.4s2.3,5.7,5.4,5.8
	c0.1,0,0.2,0,0.4,0c1.7,0,3.5-0.6,4.8-1.7L192.9,19.7L192.9,19.7z"/>
</svg>
