<svg id="Layer_1" data-name="Layer 1" xmlns="http://www.w3.org/2000/svg" viewBox="0 0 288.72 66.74"><defs><style>.cls-1{fill:#fff;}</style></defs><title>innova-logo--white-footer</title><circle class="cls-1" cx="55.9" cy="83.9" r="2.5" transform="translate(-32.38 -9.11) rotate(-27.47)"/><path class="cls-1" d="M58.5,91.4a2.15,2.15,0,1,0-2.9-.9h0a2.09,2.09,0,0,0,2.9.9h0Z" transform="translate(0.02 -44.36)"/><circle class="cls-1" cx="58.19" cy="94.59" r="1.7" transform="translate(-37.13 -6.72) rotate(-27.55)"/><circle class="cls-1" cx="57.71" cy="98.78" r="1.4" transform="translate(-39.1 -6.51) rotate(-27.52)"/><path class="cls-1" d="M58.4,74A2.55,2.55,0,1,0,55,77.8a2.42,2.42,0,0,0,3.5-.2A2.45,2.45,0,0,0,58.4,74Z" transform="translate(0.02 -44.36)"/><path class="cls-1" d="M61.7,79a2.12,2.12,0,1,0,.1,3h0A2.17,2.17,0,0,0,61.7,79Z" transform="translate(0.02 -44.36)"/><circle class="cls-1" cx="62.48" cy="85.15" r="1.7" transform="translate(-42.5 29.37) rotate(-47.52)"/><circle class="cls-1" cx="63.48" cy="89.21" r="1.4" transform="translate(-45.16 31.37) rotate(-47.49)"/><path class="cls-1" d="M52.5,67.1A2.53,2.53,0,1,0,57.2,69a2.58,2.58,0,0,0-1.4-3.3,2.54,2.54,0,0,0-3.3,1.4h0Z" transform="translate(0.02 -44.36)"/><circle class="cls-1" cx="59.73" cy="71.26" r="2.1" transform="translate(-28.96 54.77) rotate(-67.47)"/><circle class="cls-1" cx="63.36" cy="74.74" r="1.7" transform="translate(-29.92 60.31) rotate(-67.49)"/><path class="cls-1" d="M66.2,77a1.37,1.37,0,1,0,.7,1.8h0a1.36,1.36,0,0,0-.7-1.8h0Z" transform="translate(0.02 -44.36)"/><path class="cls-1" d="M47.8,61.2a2.5,2.5,0,1,0,2.6-2.4A2.48,2.48,0,0,0,47.8,61.2Z" transform="translate(0.02 -44.36)"/><path class="cls-1" d="M58.1,62.8a2.15,2.15,0,1,0-2.3,2.1,2.16,2.16,0,0,0,2.3-2.1h0Z" transform="translate(0.02 -44.36)"/><path class="cls-1" d="M59,64.6A1.7,1.7,0,1,0,60.8,63,1.63,1.63,0,0,0,59,64.6h0Z" transform="translate(0.02 -44.36)"/><circle class="cls-1" cx="64.03" cy="67.23" r="1.4" transform="translate(-5.92 83.9) rotate(-87.49)"/><path class="cls-1" d="M41.4,57.3A2.53,2.53,0,1,0,43,54.1a2.54,2.54,0,0,0-1.6,3.2h0Z" transform="translate(0.02 -44.36)"/><path class="cls-1" d="M47.5,56.5a2.15,2.15,0,1,0,1.4-2.7h0A2.26,2.26,0,0,0,47.5,56.5Z" transform="translate(0.02 -44.36)"/><path class="cls-1" d="M55.2,57.8a1.68,1.68,0,1,0-2.1-1.1h0a1.61,1.61,0,0,0,2.1,1.1h0Z" transform="translate(0.02 -44.36)"/><circle class="cls-1" cx="58.7" cy="57.39" r="1.4" transform="matrix(0.95, -0.3, 0.3, 0.95, -14.53, -24.05)"/><circle class="cls-1" cx="35.67" cy="53.58" r="2.5" transform="translate(-25.3 -11.38) rotate(-37.68)"/><path class="cls-1" d="M39.9,50a2.14,2.14,0,1,0,3,.4h0A2.18,2.18,0,0,0,39.9,50Z" transform="translate(0.02 -44.36)"/><circle class="cls-1" cx="46.08" cy="50.22" r="1.7" transform="translate(-21.03 -5.91) rotate(-37.51)"/><circle class="cls-1" cx="49.9" cy="49.21" r="1.4" transform="translate(-19.66 -3.59) rotate(-37.68)"/><path class="cls-1" d="M29.3,52.8a2.54,2.54,0,1,0,.8,3.5h0A2.56,2.56,0,0,0,29.3,52.8Z" transform="translate(0.02 -44.36)"/><path class="cls-1" d="M30.8,52.4a2.18,2.18,0,0,0,2.3-3.7,2.16,2.16,0,0,0-3,.7h0A2.2,2.2,0,0,0,30.8,52.4Z" transform="translate(0.02 -44.36)"/><circle class="cls-1" cx="36.05" cy="47.62" r="1.7" transform="matrix(0.54, -0.84, 0.84, 0.54, -23.46, 8.08)"/><path class="cls-1" d="M39.2,47a1.37,1.37,0,1,0-.4-1.9h0A1.32,1.32,0,0,0,39.2,47Z" transform="translate(0.02 -44.36)"/><path class="cls-1" d="M18.1,57.6A2.51,2.51,0,1,0,23,58.7a2.46,2.46,0,0,0-1.9-3,2.53,2.53,0,0,0-3,1.9h0Z" transform="translate(0.02 -44.36)"/><path class="cls-1" d="M22.4,54.9a2.16,2.16,0,1,0-1.6-2.6A2.18,2.18,0,0,0,22.4,54.9Z" transform="translate(0.02 -44.36)"/><path class="cls-1" d="M25.3,50.2a1.69,1.69,0,1,0-1.3-2,1.7,1.7,0,0,0,1.3,2h0Z" transform="translate(0.02 -44.36)"/><path class="cls-1" d="M28.4,47a1.33,1.33,0,1,0-1-1.6h0A1.35,1.35,0,0,0,28.4,47Z" transform="translate(0.02 -44.36)"/><path class="cls-1" d="M15.1,66.3a2.52,2.52,0,1,0-2.8-2.2,2.5,2.5,0,0,0,2.8,2.2h0Z" transform="translate(0.02 -44.36)"/><path class="cls-1" d="M15.4,60.1A2.16,2.16,0,1,0,13,58.2h0A2.15,2.15,0,0,0,15.4,60.1Z" transform="translate(0.02 -44.36)"/><path class="cls-1" d="M16.4,54.6a1.71,1.71,0,1,0-1.9-1.5,1.63,1.63,0,0,0,1.9,1.5h0Z" transform="translate(0.02 -44.36)"/><circle class="cls-1" cx="18.1" cy="49.2" r="1.4" transform="translate(-6.25 -41.57) rotate(-7.5)"/><path class="cls-1" d="M12.3,73.3A2.53,2.53,0,1,0,10,68.8a2.53,2.53,0,0,0,2.3,4.5h0Z" transform="translate(0.02 -44.36)"/><path class="cls-1" d="M8.5,63.5a2,2,0,0,0-.9,2.9,2,2,0,0,0,2.9.9,2.12,2.12,0,0,0,.9-2.9,2.21,2.21,0,0,0-2.9-.9h0Z" transform="translate(0.02 -44.36)"/><circle class="cls-1" cx="8.92" cy="60.39" r="1.7" transform="translate(-26.89 -33.4) rotate(-27.53)"/><circle class="cls-1" cx="9.42" cy="56.2" r="1.4" transform="translate(-24.84 -33.68) rotate(-27.47)"/><path class="cls-1" d="M8.6,80.9A2.55,2.55,0,1,0,12,77.1a2.42,2.42,0,0,0-3.5.2,2.53,2.53,0,0,0,.1,3.6h0Z" transform="translate(0.02 -44.36)"/><path class="cls-1" d="M5.4,75.9a2.12,2.12,0,1,0-.1-3h0A2.08,2.08,0,0,0,5.4,75.9Z" transform="translate(0.02 -44.36)"/><path class="cls-1" d="M3.3,68.6a1.7,1.7,0,0,0,2.5,2.3,1.72,1.72,0,0,0-.1-2.4h0A1.82,1.82,0,0,0,3.3,68.6Z" transform="translate(0.02 -44.36)"/><circle class="cls-1" cx="3.58" cy="65.68" r="1.4" transform="translate(-47.25 -20.4) rotate(-47.51)"/><path class="cls-1" d="M14.6,87.9A2.53,2.53,0,1,0,9.9,86a2.58,2.58,0,0,0,1.4,3.3A2.63,2.63,0,0,0,14.6,87.9Z" transform="translate(0.02 -44.36)"/><path class="cls-1" d="M6.6,85.7a2.15,2.15,0,1,0,1.6-4,2.13,2.13,0,0,0-2.8,1.2A2.26,2.26,0,0,0,6.6,85.7Z" transform="translate(0.02 -44.36)"/><path class="cls-1" d="M4.3,78.6a1.68,1.68,0,1,0,.9,2.2,1.64,1.64,0,0,0-.9-2.2h0Z" transform="translate(0.02 -44.36)"/><path class="cls-1" d="M2.6,77.2a1.36,1.36,0,0,0-.7-1.8,1.37,1.37,0,1,0,.7,1.8h0Z" transform="translate(0.02 -44.36)"/><path class="cls-1" d="M19.3,93.7a2.42,2.42,0,0,0-2.4-2.6,2.5,2.5,0,0,0-.2,5A2.48,2.48,0,0,0,19.3,93.7Z" transform="translate(0.02 -44.36)"/><path class="cls-1" d="M11,94.4a2.15,2.15,0,1,0,.1-4.3,2.18,2.18,0,0,0-2.2,2A2.29,2.29,0,0,0,11,94.4Z" transform="translate(0.02 -44.36)"/><path class="cls-1" d="M8.1,90.3a1.83,1.83,0,0,0-1.6-1.8,1.7,1.7,0,0,0-.2,3.4,1.68,1.68,0,0,0,1.8-1.6h0Z" transform="translate(0.02 -44.36)"/><path class="cls-1" d="M3.1,86.4a1.35,1.35,0,1,0,1.3,1.4h0A1.35,1.35,0,0,0,3.1,86.4Z" transform="translate(0.02 -44.36)"/><path class="cls-1" d="M25.7,97.6a2.53,2.53,0,1,0-1.6,3.2,2.62,2.62,0,0,0,1.6-3.2h0Z" transform="translate(0.02 -44.36)"/><path class="cls-1" d="M19.5,98.4a2.15,2.15,0,1,0-1.4,2.7,2.1,2.1,0,0,0,1.4-2.7h0Z" transform="translate(0.02 -44.36)"/><path class="cls-1" d="M11.9,97.1A1.68,1.68,0,1,0,14,98.2h0A1.65,1.65,0,0,0,11.9,97.1Z" transform="translate(0.02 -44.36)"/><path class="cls-1" d="M8,96.3a1.36,1.36,0,1,0,1.7.9h0A1.28,1.28,0,0,0,8,96.3Z" transform="translate(0.02 -44.36)"/><path class="cls-1" d="M32.6,102.6a2.49,2.49,0,1,0-3.1-3.9,2.53,2.53,0,0,0-.5,3.5,2.65,2.65,0,0,0,3.6.4h0Z" transform="translate(0.02 -44.36)"/><path class="cls-1" d="M27.1,104.9a2.14,2.14,0,1,0-3-.4h0A2.12,2.12,0,0,0,27.1,104.9Z" transform="translate(0.02 -44.36)"/><path class="cls-1" d="M19.9,103.3a1.71,1.71,0,1,0,2.4.3,1.83,1.83,0,0,0-2.4-.3h0Z" transform="translate(0.02 -44.36)"/><path class="cls-1" d="M15.9,103.9a1.36,1.36,0,1,0,1.9.3h0A1.24,1.24,0,0,0,15.9,103.9Z" transform="translate(0.02 -44.36)"/><path class="cls-1" d="M40.5,97.9a2.54,2.54,0,1,0,.8,3.5A2.58,2.58,0,0,0,40.5,97.9Z" transform="translate(0.02 -44.36)"/><path class="cls-1" d="M36.3,102.5a2.25,2.25,0,0,0-3,.7,2.16,2.16,0,0,0,.7,3,2.25,2.25,0,0,0,3-.7h0A2.2,2.2,0,0,0,36.3,102.5Z" transform="translate(0.02 -44.36)"/><path class="cls-1" d="M31.9,105.9a1.73,1.73,0,1,0,.5,2.4h0A1.67,1.67,0,0,0,31.9,105.9Z" transform="translate(0.02 -44.36)"/><path class="cls-1" d="M27.9,107.9a1.37,1.37,0,1,0,.4,1.9h0A1.4,1.4,0,0,0,27.9,107.9Z" transform="translate(0.02 -44.36)"/><path class="cls-1" d="M49,97.3a2.51,2.51,0,0,0-4.9-1.1,2.46,2.46,0,0,0,1.9,3,2.5,2.5,0,0,0,3-1.9h0Z" transform="translate(0.02 -44.36)"/><path class="cls-1" d="M44.7,100a2.16,2.16,0,1,0,1.6,2.6h0A2.26,2.26,0,0,0,44.7,100Z" transform="translate(0.02 -44.36)"/><path class="cls-1" d="M41.8,104.8a1.69,1.69,0,1,0,1.3,2,1.7,1.7,0,0,0-1.3-2h0Z" transform="translate(0.02 -44.36)"/><path class="cls-1" d="M38.6,108a1.3,1.3,0,0,0-1.6,1,1.38,1.38,0,0,0,1,1.6,1.3,1.3,0,0,0,1.6-1h0A1.24,1.24,0,0,0,38.6,108Z" transform="translate(0.02 -44.36)"/><path class="cls-1" d="M52,88.7a2.52,2.52,0,1,0,2.8,2.2A2.44,2.44,0,0,0,52,88.7h0Z" transform="translate(0.02 -44.36)"/><path class="cls-1" d="M51.7,94.9a2.16,2.16,0,1,0,2.4,1.9h0A2.09,2.09,0,0,0,51.7,94.9Z" transform="translate(0.02 -44.36)"/><path class="cls-1" d="M50.6,100.3a1.71,1.71,0,1,0,1.9,1.5,1.69,1.69,0,0,0-1.9-1.5h0Z" transform="translate(0.02 -44.36)"/><path class="cls-1" d="M48.8,104.4a1.36,1.36,0,1,0,1.5,1.2h0A1.34,1.34,0,0,0,48.8,104.4Z" transform="translate(0.02 -44.36)"/><path class="cls-1" d="M87.9,79.3c6.6,0,8.8,3.9,8.8,8.1,0,6.1-4,8.5-9.7,8.5H79.5v8.8H78.2V79.3h9.7Zm-1,15.5c5,0,8.4-2.1,8.4-7.3,0-3.6-1.9-6.9-7.5-6.9H79.5V94.8h7.4Z" transform="translate(0.02 -44.36)"/><path class="cls-1" d="M117.2,85.3v19.4H116v-2.3a12.46,12.46,0,0,1-7.7,2.5,10,10,0,1,1-.5-19.9h0.5a12.55,12.55,0,0,1,7.7,2.6V85.4h1.2V85.3ZM116,89a10.64,10.64,0,0,0-7.5-2.8,8.71,8.71,0,0,0-.6,17.4h0.6a10.81,10.81,0,0,0,7.6-2.7L116,89h0Z" transform="translate(0.02 -44.36)"/><path class="cls-1" d="M122.8,90c1.1-3,3.4-5,6.6-5a7.31,7.31,0,0,1,3.3.8l-0.3,1.3a6.7,6.7,0,0,0-3.1-.7c-3.9,0-6.5,3.6-6.5,8.2v10.2h-1.3V85.3h1.3V90h0Z" transform="translate(0.02 -44.36)"/><path class="cls-1" d="M139.4,86.5v12c0,3.7,1.8,5.1,4.3,5.1a11.24,11.24,0,0,0,3.2-.4v1.2a13.42,13.42,0,0,1-3.5.4c-3,0-5.4-1.9-5.4-5.6V86.5h-3.6V85.3H138V77.6h1.3v7.7h7.6v1.2h-7.5Z" transform="translate(0.02 -44.36)"/><path class="cls-1" d="M166.6,93.5v11.2h-1.3V93.5c0-4.8-3.1-7.3-7.2-7.3a11,11,0,0,0-7.5,2.7v15.8h-1.3V85.3h1.3v2.3a11,11,0,0,1,7.6-2.7C163,85,166.6,87.9,166.6,93.5Z" transform="translate(0.02 -44.36)"/><path class="cls-1" d="M188.9,95.5H171a8.43,8.43,0,0,0,8.6,8.1,9.57,9.57,0,0,0,7.5-3.3l1,0.8a10.63,10.63,0,0,1-8.5,3.7,10,10,0,0,1,0-19.9c5.9,0,9.3,4.2,9.3,10.1v0.5h0ZM171,94.3h16.6c-0.3-4.8-3.2-8.1-8.1-8.1a8.41,8.41,0,0,0-8.5,8.1h0Z" transform="translate(0.02 -44.36)"/><path class="cls-1" d="M193.8,90c1.1-3,3.4-5,6.6-5a7.31,7.31,0,0,1,3.3.8l-0.3,1.3a6.7,6.7,0,0,0-3.1-.7c-3.9,0-6.5,3.6-6.5,8.2v10.2h-1.3V85.3h1.3V90h0Z" transform="translate(0.02 -44.36)"/><path class="cls-1" d="M205.3,102a19.42,19.42,0,0,0,7.5,1.6c4.7,0,6.4-2.1,6.4-4.3,0-2.4-2.8-3.4-6.7-4.2-4.3-.9-7.4-2.1-7.4-5.2s3.1-5.1,7.1-5.1a17.4,17.4,0,0,1,7.1,1.5l-0.4,1.1a15.42,15.42,0,0,0-6.7-1.3c-3.3,0-5.8,1.6-5.8,3.9s2.4,3.1,6.4,3.9c4.5,0.9,7.6,2.1,7.6,5.4,0,2.8-2.1,5.5-7.7,5.5a21.72,21.72,0,0,1-8-1.8Z" transform="translate(0.02 -44.36)"/><path class="cls-1" d="M241.2,93.5v11.2h-1.3V93.5c0-4.8-3.2-7.3-7.2-7.3a11,11,0,0,0-7.5,2.7v15.8h-1.3V77.6h1.3V87.7a11,11,0,0,1,7.6-2.7C237.6,85,241.2,87.9,241.2,93.5Z" transform="translate(0.02 -44.36)"/><path class="cls-1" d="M247.3,80.2a1.05,1.05,0,1,1-1.1-1h0a0.93,0.93,0,0,1,1.1,1h0Zm-1.7,5.1h1.3v19.4h-1.3V85.3Z" transform="translate(0.02 -44.36)"/><path class="cls-1" d="M270.8,94.9a10,10,0,0,1-10,10h-0.1a12.09,12.09,0,0,1-7.6-2.4v8.6h-1.3V85.3h1.3v2.2a11.88,11.88,0,0,1,7.6-2.6,10.11,10.11,0,0,1,10.1,10h0Zm-1.3,0a8.69,8.69,0,0,0-8.9-8.7h-0.1A10.32,10.32,0,0,0,253,89v11.9a10.56,10.56,0,0,0,7.5,2.7,8.84,8.84,0,0,0,9-8.7h0Z" transform="translate(0.02 -44.36)"/><path class="cls-1" d="M273.6,102a19.42,19.42,0,0,0,7.5,1.6c4.7,0,6.4-2.1,6.4-4.3,0-2.4-2.8-3.4-6.7-4.2-4.3-.9-7.4-2.1-7.4-5.2s3.1-5.1,7.1-5.1a17.4,17.4,0,0,1,7.1,1.5l-0.4,1.1a15.42,15.42,0,0,0-6.7-1.3c-3.3,0-5.8,1.6-5.8,3.9s2.4,3.1,6.4,3.9c4.5,0.9,7.6,2.1,7.6,5.4,0,2.8-2.1,5.5-7.7,5.5a21.72,21.72,0,0,1-8-1.8Z" transform="translate(0.02 -44.36)"/><path class="cls-1" d="M83.4,75.1H78.2V49.7h5.2V75.1h0Z" transform="translate(0.02 -44.36)"/><path class="cls-1" d="M106.9,64.2V75.1h-5V64.2c0-3-1.5-4.5-4.3-4.5a6.21,6.21,0,0,0-4.3,1.6V75.2h-5V55.6h5v1.2a8.87,8.87,0,0,1,5.2-1.6C104.3,55.2,106.9,57.9,106.9,64.2Z" transform="translate(0.02 -44.36)"/><path class="cls-1" d="M129.8,64.2V75.1h-5V64.2c0-3-1.5-4.5-4.3-4.5a6.63,6.63,0,0,0-4.3,1.5V75.1h-5V55.6h5v1.2a8.87,8.87,0,0,1,5.2-1.6C127.2,55.2,129.8,57.9,129.8,64.2Z" transform="translate(0.02 -44.36)"/><path class="cls-1" d="M154.6,65.3c0,5.6-4.8,10.1-10.7,10.1s-10.7-4.5-10.7-10.1,4.8-10.1,10.7-10.1S154.6,59.7,154.6,65.3Zm-5,0a5.75,5.75,0,1,0-5.9,5.6h0.2A5.55,5.55,0,0,0,149.6,65.3Z" transform="translate(0.02 -44.36)"/><path class="cls-1" d="M176.5,55.6l-9.4,19.6h-2.4l-9.4-19.6h5.3L166,66.7l5.3-11.1h5.2Z" transform="translate(0.02 -44.36)"/><path class="cls-1" d="M197.9,55.6V75.2h-5V73.8a10.56,10.56,0,0,1-5.7,1.7c-6.1,0-9.7-4.9-9.7-10.1s3.6-10.1,9.7-10.1a11.39,11.39,0,0,1,5.7,1.6V55.7l5-.1h0Zm-5,5.8a7.81,7.81,0,0,0-4.8-1.7,5.6,5.6,0,0,0-.4,11.2h0.4a7.6,7.6,0,0,0,4.8-1.7V61.4h0Z" transform="translate(0.02 -44.36)"/></svg>