<svg id="Layer_1" data-name="Layer 1" xmlns="http://www.w3.org/2000/svg" viewBox="0 0 119.28 82.75"><defs><style>.cls-1{fill:#e476c9;}</style></defs><title>lets-talk</title><path class="cls-1" d="M119.28,27.37v35c0,6.54-4,11.91-9,12.29l-4.11,7.61a0.94,0.94,0,0,1-.57.46,1,1,0,0,1-.26,0,0.94,0.94,0,0,1-.47-0.13l-14-8.17H64.24a0.94,0.94,0,1,1,0-1.88H91a1,1,0,0,1,.47.13l13.42,7.81,3.9-7.21a1,1,0,0,1,.1-0.16h0L109,73h0a0.93,0.93,0,0,1,.6-0.22h0c4.27,0,7.74-4.68,7.74-10.43v-35c0-5.75-3.47-10.43-7.74-10.43H87.9a0.94,0.94,0,1,1,0-1.88h21.76C115,15.06,119.28,20.58,119.28,27.37ZM66.21,16.17H18.07a0.94,0.94,0,1,0,0,1.88H66.21A0.94,0.94,0,1,0,66.21,16.17Zm0,15.72H18.07a0.94,0.94,0,1,0,0,1.88H66.21A0.94,0.94,0,1,0,66.21,31.9Zm0,17.05H18.07a0.94,0.94,0,0,0,0,1.88H66.21A0.94,0.94,0,1,0,66.21,48.95Zm6.86,20.81H33.69L18.89,79.47a0.94,0.94,0,0,1-1.27-.23L10.77,70C4.79,69.67,0,63.32,0,55.55V14.46C0,6.49,5.05,0,11.26,0H72.94c6.21,0,11.26,6.49,11.26,14.46v42c0,7.63-4.64,13.19-11.07,13.3H73.07Zm-0.13-1.88c5.43,0,9.38-4.8,9.38-11.42v-42c0-6.94-4.21-12.58-9.38-12.58H11.26c-5.17,0-9.38,5.64-9.38,12.58v41.1c0,6.94,4.21,12.58,9.38,12.58h0a0.94,0.94,0,0,1,.6.22h0L12,68.45h0L12,68.52l6.58,8.89L32.89,68a0.93,0.93,0,0,1,.52-0.15H72.94Z"/></svg>