<?xml version="1.0" encoding="utf-8"?>
<!-- Generator: Adobe Illustrator 19.2.0, SVG Export Plug-In . SVG Version: 6.00 Build 0)  -->
<svg version="1.1" id="Layer_1" xmlns="http://www.w3.org/2000/svg" xmlns:xlink="http://www.w3.org/1999/xlink" x="0px" y="0px"
	 viewBox="0 0 121.1 100" style="enable-background:new 0 0 121.1 100;" xml:space="preserve">
<style type="text/css">
	.st0{fill:#E476C9;}
</style>
<title>venture-catalysts</title>
<path class="st0" d="M49.6,73.1h-8.7c0.5-1.5,0.9-3,1.1-4.6l5.1-0.1l-6.1-5.9l0,0L35,68.6l4.9-0.1c-1.5,10.4-11.1,17.7-21.5,16.2
	c-0.2,0-0.3,0-0.5-0.1c-0.5-0.1-1,0.3-1.1,0.8l-0.2-0.1v13.4c0,0.6,0.4,1,1,1h32c0.6,0,1-0.4,1-1V74.1
	C50.6,73.5,50.2,73.1,49.6,73.1C49.6,73.1,49.6,73.1,49.6,73.1z M48.6,97.8h-30V86.7c7.2,0.9,14.3-2,18.9-7.7c1-1.2,1.8-2.6,2.5-4
	h8.6V97.8L48.6,97.8z M85.2,48.3L85.2,48.3l-31.7,0.2c-0.6,0-1,0.4-1,1V99c0,0.6,0.4,1,1,1l0,0l31.7-0.2c0.6,0,1-0.4,1-1V49.3
	C86.2,48.8,85.8,48.3,85.2,48.3z M84.2,97.8L54.5,98V50.5l29.8-0.2V97.8L84.2,97.8z M120.1,25.4H89c-0.6,0-1,0.4-1,1v72.4
	c0,0.6,0.4,1,1,1h31.1c0.6,0,1-0.4,1-1V26.4C121,25.8,120.6,25.4,120.1,25.4z M119.1,97.8H90V27.3h29.1L119.1,97.8L119.1,97.8z
	 M18.6,51.8l-7.8-3.3l0,0l3.3-7.9l1.9,4.7c4.6-1.2,9.5-0.7,13.8,1.2l22.6-25.4c0.4-0.4,1-0.4,1.4-0.1c0.1,0.1,0.1,0.1,0.2,0.2
	l14.4,21.2L98.1,4.8l-2.3-1.8l7.3-2.9L102,7.8L99.6,6L69.1,44.7c-0.2,0.3-0.5,0.4-0.8,0.4c-0.3,0-0.6-0.2-0.8-0.4L53,23.4L31.6,47.5
	c1,0.5,1.9,1.2,2.8,1.9c2.9,2.3,5.1,5.4,6.4,8.8c0.2,0.5-0.1,1.1-0.6,1.3h0c-0.5,0.2-1.1-0.1-1.2-0.6C35.5,50,26,45,16.7,47.2
	L18.6,51.8z M12.1,76.8l2.7,8.1v0l-8.1,2.7L9,83.1c-0.4-0.3-0.8-0.5-1.2-0.8c-9.1-7.3-10.5-20.6-3.1-29.7c0.7-0.9,1.5-1.7,2.4-2.5
	c0.4-0.4,1-0.3,1.4,0.1c0,0,0,0,0,0c0.3,0.4,0.3,1-0.1,1.4c-7.9,7-8.6,19.1-1.6,27c0.7,0.8,1.5,1.5,2.3,2.2c0.3,0.2,0.5,0.4,0.8,0.6
	L12.1,76.8z"/>
</svg>
